<svg xmlns="http://www.w3.org/2000/svg" viewBox="0 0 480 200" role="img" aria-hidden="true">
  <defs>
    <linearGradient id="asm-bg" x1="0%" y1="0%" x2="100%" y2="100%">
      <stop offset="0%" stop-color="#0c3d5c"/>
      <stop offset="55%" stop-color="#0a2540"/>
      <stop offset="100%" stop-color="#042f2e"/>
    </linearGradient>
    <linearGradient id="asm-accent" x1="0%" y1="0%" x2="100%" y2="0%">
      <stop offset="0%" stop-color="#2dd4bf"/>
      <stop offset="50%" stop-color="#14b8a6"/>
      <stop offset="100%" stop-color="#5eead4"/>
    </linearGradient>
    <linearGradient id="asm-gold" x1="0%" y1="0%" x2="0%" y2="100%">
      <stop offset="0%" stop-color="#fcd34d"/>
      <stop offset="100%" stop-color="#d97706"/>
    </linearGradient>
  </defs>
  <rect width="480" height="200" rx="12" fill="url(#asm-bg)"/>
  <circle cx="72" cy="52" r="38" fill="#14b8a6" opacity="0.12"/>
  <circle cx="420" cy="148" r="48" fill="#0d9488" opacity="0.15"/>
  <rect x="52" y="58" width="118" height="98" rx="8" fill="#0f172a" stroke="url(#asm-accent)" stroke-width="1.5" opacity="0.95"/>
  <path d="M68 82 H152 M68 98 H138 M68 114 H145 M68 130 H120" stroke="#334155" stroke-width="2" stroke-linecap="round"/>
  <path d="M68 82 H152" stroke="url(#asm-accent)" stroke-width="2" stroke-linecap="round" opacity="0.85"/>
  <rect x="68" y="118" width="56" height="6" rx="2" fill="#14b8a6" opacity="0.45"/>
  <rect x="68" y="128" width="40" height="6" rx="2" fill="#fbbf24" opacity="0.5"/>
  <g transform="translate(200 48)">
    <circle cx="52" cy="52" r="36" fill="none" stroke="url(#asm-accent)" stroke-width="2.5" opacity="0.95"/>
    <circle cx="52" cy="52" r="28" fill="#134e4a" opacity="0.4"/>
    <path d="M82 82 L108 108" stroke="url(#asm-accent)" stroke-width="4" stroke-linecap="round"/>
    <path d="M40 44 L64 68" stroke="#5eead4" stroke-width="1.5" stroke-linecap="round" opacity="0.5"/>
  </g>
  <path d="M318 148 Q360 88 402 118" fill="none" stroke="url(#asm-accent)" stroke-width="2" stroke-linecap="round" opacity="0.5"/>
  <g opacity="0.95">
    <circle cx="312" cy="152" r="6" fill="#14b8a6"/>
    <circle cx="338" cy="138" r="6" fill="#2dd4bf"/>
    <circle cx="364" cy="128" r="6" fill="#5eead4"/>
    <circle cx="392" cy="122" r="6" fill="#fcd34d"/>
    <circle cx="418" cy="128" r="6" fill="#fbbf24"/>
    <circle cx="312" cy="152" r="2.5" fill="#0f172a"/>
    <circle cx="338" cy="138" r="2.5" fill="#0f172a"/>
    <circle cx="364" cy="128" r="2.5" fill="#0f172a"/>
    <circle cx="392" cy="122" r="2.5" fill="#0f172a"/>
    <circle cx="418" cy="128" r="2.5" fill="#0f172a"/>
  </g>
  <path d="M280 72 L292 72 L292 100 L268 100 L268 88" fill="none" stroke="#2dd4bf" stroke-width="1.5" stroke-linejoin="round" opacity="0.55"/>
  <path d="M274 78 H286 M274 88 H286 M274 98 H280" stroke="#5eead4" stroke-width="1.2" stroke-linecap="round" opacity="0.65"/>
</svg>
